<svg xmlns="http://www.w3.org/2000/svg" xmlns:xlink="http://www.w3.org/1999/xlink" viewBox="0,0,256,256" width="48px" height="48px"><g fill="#e9e9fc" fill-rule="nonzero" stroke="none" stroke-width="1" stroke-linecap="butt" stroke-linejoin="miter" stroke-miterlimit="10" stroke-dasharray="" stroke-dashoffset="0" font-family="none" font-weight="none" font-size="none" text-anchor="none" style="mix-blend-mode: normal"><g transform="scale(4,4)"><path d="M32,10c-12.15,0 -22,9.85 -22,22c0,12.15 9.85,22 22,22c12.15,0 22,-9.85 22,-22c0,-12.15 -9.85,-22 -22,-22zM32,14c9.941,0 18,8.059 18,18c0,9.941 -8.059,18 -18,18c-9.941,0 -18,-8.059 -18,-18c0,-9.941 8.059,-18 18,-18zM37.93164,22.80859c-2.839,0 -5.14062,2.33113 -5.14062,5.20313c0,0.408 0.13281,1.18359 0.13281,1.18359c0,0 -6.20466,0.03845 -10.59766,-5.43555c0,0 -0.67631,0.91519 -0.69531,2.61719c-0.033,2.886 2.28711,4.32813 2.28711,4.32813c0,0 -1.16708,0.03161 -2.33008,-0.65039c0.105,4.469 4.125,5.16797 4.125,5.16797c0,0 -1.29927,0.25089 -2.32227,0.08789c0.655,2.067 2.55469,3.57423 4.80469,3.61523c-1.759,1.396 -3.97772,2.22656 -6.38672,2.22656c-0.414,0 -0.82256,-0.02327 -1.22656,-0.07227c1.194,1.308 4.97881,2.33789 7.88281,2.33789c9.458,0 14.62695,-7.92969 14.62695,-14.80469c0,-0.225 -0.00563,-0.44888 -0.01562,-0.67187c1.007,-0.734 1.88036,-1.64931 2.56836,-2.69531c-1.403,0.645 -2.95312,0.82031 -2.95312,0.82031c0,0 1.81177,-1.06191 2.25977,-2.87891c-0.993,0.596 -2.09262,1.02967 -3.26562,1.26367c-0.938,-1.011 -2.27491,-1.64258 -3.75391,-1.64258z"></path></g></g></svg>